<svg xmlns="http://www.w3.org/2000/svg" viewBox="0 0 400 300" width="400" height="300">
  <defs>
    <linearGradient id="tealGrad4" x1="0%" y1="0%" x2="100%" y2="100%">
      <stop offset="0%" style="stop-color:#0F4C4B"/>
      <stop offset="100%" style="stop-color:#14919B"/>
    </linearGradient>
    <linearGradient id="goldGrad4" x1="0%" y1="0%" x2="100%" y2="100%">
      <stop offset="0%" style="stop-color:#C8973E"/>
      <stop offset="100%" style="stop-color:#E8C56C"/>
    </linearGradient>
    <linearGradient id="successGrad" x1="0%" y1="0%" x2="100%" y2="100%">
      <stop offset="0%" style="stop-color:#10B981"/>
      <stop offset="100%" style="stop-color:#34D399"/>
    </linearGradient>
  </defs>
  <!-- Document -->
  <rect x="120" y="60" width="160" height="200" rx="12" fill="none" stroke="url(#tealGrad4)" stroke-width="2" opacity="0.5"/>
  <rect x="130" y="70" width="140" height="180" rx="8" fill="#F8F3ED" opacity="0.3"/>
  <!-- Checkmark circle -->
  <circle cx="200" cy="140" r="40" fill="none" stroke="url(#successGrad)" stroke-width="3" opacity="0.7"/>
  <path d="M175 140 L190 155 L225 120" fill="none" stroke="url(#successGrad)" stroke-width="3" stroke-linecap="round" stroke-linejoin="round" opacity="0.8"/>
  <!-- Document lines -->
  <rect x="150" y="200" width="100" height="6" rx="3" fill="#0F4C4B" opacity="0.2"/>
  <rect x="150" y="215" width="80" height="6" rx="3" fill="#0F4C4B" opacity="0.15"/>
  <rect x="150" y="230" width="60" height="6" rx="3" fill="#0F4C4B" opacity="0.1"/>
  <!-- Confetti -->
  <rect x="100" y="100" width="8" height="4" rx="1" fill="url(#goldGrad4)" opacity="0.5" transform="rotate(30 104 102)"/>
  <rect x="290" y="80" width="6" height="6" rx="1" fill="url(#tealGrad4)" opacity="0.4" transform="rotate(45 293 83)"/>
  <rect x="310" y="160" width="8" height="4" rx="1" fill="url(#goldGrad4)" opacity="0.4" transform="rotate(-20 314 162)"/>
  <rect x="90" y="180" width="6" height="6" rx="1" fill="#10B981" opacity="0.4" transform="rotate(15 93 183)"/>
  <circle cx="300" cy="120" r="3" fill="url(#goldGrad4)" opacity="0.4"/>
  <circle cx="110" y="150" r="2.5" fill="url(#tealGrad4)" opacity="0.4"/>
</svg>